<svg id="Capa_1" enable-background="new 0 0 512 512" height="512" viewBox="0 0 512 512" width="512" xmlns="http://www.w3.org/2000/svg"><g><g><g><g><g><path d="m119.989 117.311c-2.882 0-5.042-.856-6.419-2.543-1.935-2.372-1.398-5.331-1.33-5.66l4.836-23.599 50.675-37.543c1.418-1.05 3.424-.011 3.383 1.753-.011.499-1.581 50.046-40.249 65.032-4.387 1.699-8.053 2.56-10.896 2.56z" fill="#c6e873"/></g><g><path d="m106.998 117.311c-2.844 0-6.509-.862-10.895-2.562-38.669-14.985-40.238-64.532-40.249-65.031-.04-1.764 1.966-2.803 3.383-1.753l50.675 37.543 4.836 23.6c.067.329.604 3.288-1.33 5.66-1.377 1.688-3.536 2.543-6.418 2.543-.001 0-.001 0-.002 0z" fill="#c6e873"/></g><path d="m115.662 9.075c-.8-1.856-3.538-1.856-4.338 0-4.622 10.725-15.027 37.27-15.027 58.901 0 27.807 17.197 44.901 17.197 44.901s17.197-17.093 17.197-44.901c0-21.631-10.406-48.176-15.029-58.901z" fill="#b5e245"/><path d="m139.643 159.623h-52.299l-16.443-45.821c-.841-2.343.896-4.81 3.384-4.81h78.417c2.489 0 4.225 2.468 3.384 4.81z" fill="#e27d47"/></g><g><g><path d="m262.495 117.311c-2.882 0-5.042-.856-6.419-2.543-1.935-2.372-1.398-5.331-1.33-5.66l4.836-23.599 50.675-37.543c1.418-1.05 3.424-.011 3.383 1.753-.011.499-1.581 50.046-40.249 65.032-4.387 1.699-8.053 2.56-10.896 2.56z" fill="#c6e873"/></g><g><path d="m249.505 117.311c-2.844 0-6.509-.862-10.895-2.562-38.669-14.986-40.238-64.533-40.249-65.032-.04-1.764 1.966-2.803 3.383-1.753l50.675 37.543 4.836 23.6c.067.329.604 3.288-1.33 5.66-1.377 1.688-3.536 2.543-6.418 2.543-.002.001-.002.001-.002.001z" fill="#c6e873"/></g><path d="m258.169 9.075c-.8-1.856-3.538-1.856-4.338 0-4.623 10.726-15.028 37.271-15.028 58.901 0 27.807 17.197 44.901 17.197 44.901s17.197-17.093 17.197-44.901c0-21.631-10.405-48.176-15.028-58.901z" fill="#b5e245"/><path d="m282.149 159.623h-52.299l-16.443-45.821c-.841-2.343.896-4.81 3.384-4.81h78.417c2.489 0 4.225 2.468 3.384 4.81z" fill="#e27d47"/></g><g><g><path d="m405.001 117.311c-2.882 0-5.042-.856-6.419-2.543-1.935-2.372-1.398-5.331-1.33-5.66l4.836-23.599 50.675-37.543c1.418-1.05 3.424-.011 3.383 1.753-.011.499-1.581 50.046-40.249 65.032-4.387 1.699-8.052 2.56-10.896 2.56z" fill="#c6e873"/></g><g><path d="m392.011 117.311c-2.844 0-6.509-.862-10.895-2.562-38.669-14.986-40.238-64.533-40.249-65.032-.04-1.764 1.966-2.803 3.383-1.753l50.675 37.543 4.836 23.6c.067.329.604 3.288-1.33 5.66-1.377 1.688-3.536 2.543-6.418 2.543-.001.001-.001.001-.002.001z" fill="#c6e873"/></g><path d="m400.675 9.075c-.8-1.856-3.538-1.856-4.338 0-4.623 10.726-15.028 37.271-15.028 58.901 0 27.807 17.197 44.901 17.197 44.901s17.197-17.093 17.197-44.901c0-21.631-10.405-48.176-15.028-58.901z" fill="#b5e245"/><path d="m424.656 159.623h-52.299l-16.443-45.821c-.841-2.343.896-4.81 3.384-4.81h78.417c2.489 0 4.225 2.468 3.384 4.81z" fill="#e27d47"/></g></g><g><g><g><path d="m119.989 365.613c-2.882 0-5.042-.856-6.419-2.543-1.935-2.372-1.398-5.331-1.33-5.66l4.836-23.599 50.675-37.543c1.418-1.05 3.424-.011 3.383 1.753-.011.499-1.581 50.046-40.249 65.032-4.387 1.698-8.053 2.56-10.896 2.56z" fill="#c6e873"/></g><g><path d="m106.998 365.613c-2.844 0-6.509-.862-10.895-2.562-38.669-14.986-40.238-64.533-40.249-65.032-.04-1.764 1.966-2.803 3.383-1.753l50.675 37.543 4.836 23.6c.067.329.604 3.288-1.33 5.66-1.377 1.688-3.536 2.543-6.418 2.543-.001.001-.001.001-.002.001z" fill="#c6e873"/></g><path d="m115.662 257.376c-.8-1.856-3.538-1.856-4.338 0-4.623 10.726-15.028 37.271-15.028 58.901 0 27.807 17.197 44.901 17.197 44.901s17.197-17.093 17.197-44.901c.001-21.63-10.405-48.175-15.028-58.901z" fill="#b5e245"/><path d="m139.643 407.925h-52.299l-16.443-45.821c-.841-2.343.896-4.81 3.384-4.81h78.417c2.489 0 4.225 2.468 3.384 4.81z" fill="#e27d47"/></g><g><g><path d="m262.495 365.613c-2.882 0-5.042-.856-6.419-2.543-1.935-2.372-1.398-5.331-1.33-5.66l4.836-23.599 50.675-37.543c1.418-1.05 3.424-.011 3.383 1.753-.011.499-1.581 50.046-40.249 65.032-4.387 1.698-8.053 2.56-10.896 2.56z" fill="#c6e873"/></g><g><path d="m249.505 365.613c-2.844 0-6.509-.862-10.895-2.562-38.669-14.986-40.238-64.533-40.249-65.032-.04-1.764 1.966-2.803 3.383-1.753l50.675 37.543 4.836 23.6c.067.329.604 3.288-1.33 5.66-1.377 1.688-3.536 2.543-6.418 2.543-.002.001-.002.001-.002.001z" fill="#c6e873"/></g><path d="m258.169 257.376c-.8-1.856-3.538-1.856-4.338 0-4.623 10.726-15.028 37.271-15.028 58.901 0 27.807 17.197 44.901 17.197 44.901s17.197-17.093 17.197-44.901c0-21.63-10.405-48.175-15.028-58.901z" fill="#b5e245"/><path d="m282.149 407.925h-52.299l-16.443-45.821c-.841-2.343.896-4.81 3.384-4.81h78.417c2.489 0 4.225 2.468 3.384 4.81z" fill="#e27d47"/></g><g><g><path d="m405.001 365.613c-2.882 0-5.042-.856-6.419-2.543-1.935-2.372-1.398-5.331-1.33-5.66l4.836-23.599 50.675-37.543c1.418-1.05 3.424-.011 3.383 1.753-.011.499-1.581 50.046-40.249 65.032-4.387 1.698-8.052 2.56-10.896 2.56z" fill="#c6e873"/></g><g><path d="m392.011 365.613c-2.844 0-6.509-.862-10.895-2.562-38.669-14.986-40.238-64.533-40.249-65.032-.04-1.764 1.966-2.803 3.383-1.753l50.675 37.543 4.836 23.6c.067.329.604 3.288-1.33 5.66-1.377 1.688-3.536 2.543-6.418 2.543-.001.001-.001.001-.002.001z" fill="#c6e873"/></g><path d="m400.675 257.376c-.8-1.856-3.538-1.856-4.338 0-4.623 10.726-15.028 37.271-15.028 58.901 0 27.807 17.197 44.901 17.197 44.901s17.197-17.093 17.197-44.901c0-21.63-10.405-48.175-15.028-58.901z" fill="#b5e245"/><path d="m424.656 407.925h-52.299l-16.443-45.821c-.841-2.343.896-4.81 3.384-4.81h78.417c2.489 0 4.225 2.468 3.384 4.81z" fill="#e27d47"/></g></g><g><g><path d="m7.5 496.164v-376.196c0-4.497 3.646-8.143 8.143-8.143h19.304c4.497 0 8.143 3.646 8.143 8.143v376.195c0 4.497-3.646 8.143-8.143 8.143h-19.304c-4.497 0-8.143-3.645-8.143-8.142z" fill="#b16e3d"/><path d="m468.879 496.164v-376.196c0-4.497 3.646-8.143 8.143-8.143h19.304c4.497 0 8.143 3.646 8.143 8.143v376.195c0 4.497-3.646 8.143-8.143 8.143h-19.304c-4.498 0-8.143-3.645-8.143-8.142z" fill="#b16e3d"/><path d="m7.564 154.103h496.936v60.434h-496.936z" fill="#ce9875"/><path d="m7.564 403.128h496.936v60.434h-496.936z" fill="#ce9875"/><g fill="#c6865c"><path d="m439.175 154.103h65.325v60.434h-65.325z"/><path d="m439.175 403.128h65.325v60.434h-65.325z"/></g></g><g><g><circle cx="40.535" cy="184.32" r="7.493"/><circle cx="471.465" cy="184.32" r="7.493"/></g><g><circle cx="40.535" cy="433.345" r="7.493"/><circle cx="471.465" cy="433.345" r="7.493"/></g></g></g></g><path d="m512 214.538c-.005-13.54-.026-77.966-.032-94.569 0-8.625-7.018-15.643-15.643-15.643h-19.304c-8.625 0-15.643 7.018-15.643 15.643v26.635h-24.083l10.862-30.268c1.7-4.737 0-10.046-4.18-12.904 18.731-22.455 19.658-53.182 19.666-53.544.181-7.999-8.92-12.712-15.346-7.949l-25.423 18.835c-1.845-21.402-11.089-44.87-15.312-54.668-3.396-7.879-14.712-7.887-18.113 0-4.222 9.798-13.466 33.266-15.311 54.668l-25.423-18.834c-6.429-4.764-15.529-.051-15.347 7.95.009.368.968 31.099 19.67 53.539-4.186 2.859-5.882 8.174-4.184 12.907l10.862 30.268h-64.926l10.862-30.268c1.7-4.737 0-10.046-4.18-12.904 18.731-22.455 19.658-53.182 19.666-53.544.181-7.998-8.92-12.713-15.346-7.949l-25.423 18.835c-1.845-21.402-11.089-44.87-15.312-54.668-3.396-7.879-14.712-7.887-18.113 0-4.222 9.798-13.466 33.266-15.311 54.668l-25.424-18.834c-6.429-4.764-15.529-.051-15.347 7.95.009.368.968 31.099 19.67 53.539-4.186 2.859-5.882 8.174-4.184 12.907l10.862 30.268h-64.926l10.862-30.268c1.699-4.733.003-10.048-4.184-12.907 18.702-22.44 19.662-53.171 19.67-53.541.181-7.999-8.92-12.712-15.347-7.949l-25.423 18.835c-1.845-21.402-11.089-44.87-15.312-54.668-3.396-7.879-14.712-7.887-18.113 0-4.222 9.798-13.466 33.266-15.311 54.668l-25.423-18.834c-6.434-4.768-15.53-.039-15.347 7.942.008.367.935 31.095 19.666 53.55-4.176 2.855-5.881 8.163-4.18 12.904l10.862 30.268h-24.115v-26.635c0-8.625-7.018-15.643-15.643-15.643h-19.303c-8.626 0-15.643 7.017-15.643 15.642.054 79.365.007 197.838 0 376.195 0 8.625 7.017 15.643 15.643 15.643h19.304c8.625 0 15.643-7.018 15.643-15.643v-25.102h331.76c4.142 0 7.5-3.357 7.5-7.5s-3.358-7.5-7.5-7.5h-367.286v-45.434h481.936v45.434h-79.592c-4.142 0-7.5 3.357-7.5 7.5s3.358 7.5 7.5 7.5h43.971v25.102c0 8.625 7.017 15.643 15.643 15.643h19.304c8.625 0 15.643-7.018 15.643-15.643 0-53.44.041 42.069 0-280.997.017-.207.031-.416.031-.628zm-136.088 181.09-11.065-30.835h67.318l-11.065 30.835zm-142.506 0-11.065-30.835h67.318l-11.065 30.835zm-1.596-67.412c1.378 8.47 4.07 15.724 6.993 21.578h-9.162c-14.306-10.785-20.211-28.264-22.611-39.937zm72.242-18.358c-2.402 11.681-8.308 29.154-22.61 39.936h-9.162c2.923-5.854 5.615-13.107 6.993-21.578zm-48.51 39.08c-4.436-6.883-9.697-18.116-9.697-32.661 0-14.533 5.17-31.777 9.697-44.09 4.527 12.312 9.697 29.556 9.697 44.09 0 14.545-5.262 25.778-9.697 32.661zm50.11 15.699c1.678-4.676.083-10.18-4.489-13.092 18.555-22.424 19.508-52.988 19.517-53.357.181-7.988-8.909-12.716-15.347-7.948l-25.423 18.835c-1.845-21.404-11.089-44.872-15.312-54.668-3.396-7.879-14.712-7.887-18.112 0-4.223 9.797-13.467 33.265-15.312 54.668l-25.423-18.834c-6.427-4.766-15.528-.05-15.347 7.949.009.369.971 31.297 19.848 53.756-4.163 3.042-5.493 8.262-3.904 12.691l11.122 30.991h-65.446l11.122-30.991c1.695-4.722.011-10.041-4.184-12.906 18.703-22.441 19.661-53.172 19.67-53.542.181-7.988-8.909-12.717-15.347-7.948l-25.423 18.835c-1.845-21.402-11.089-44.87-15.312-54.668-3.396-7.879-14.712-7.887-18.113 0-4.222 9.798-13.466 33.266-15.311 54.668l-25.423-18.834c-4.16-3.083-9.858-2.316-13.113 1.567v-69.771h44.002c4.142 0 7.5-3.357 7.5-7.5s-3.358-7.5-7.5-7.5h-79.528v-45.435h481.936v45.435h-367.35c-4.142 0-7.5 3.357-7.5 7.5s3.358 7.5 7.5 7.5h331.729v69.737c-3.273-3.867-8.945-4.598-13.081-1.534l-25.423 18.835c-1.845-21.402-11.089-44.87-15.312-54.668-3.396-7.879-14.712-7.887-18.113 0-4.222 9.798-13.466 33.266-15.311 54.668l-25.423-18.834c-6.43-4.765-15.529-.05-15.347 7.949.009.368.967 31.099 19.67 53.54-4.186 2.859-5.882 8.174-4.184 12.906l11.122 30.991h-65.447zm-214.752 30.991-11.065-30.835h5.279c.004 0 .009.001.013.001.475 0 9.124 0 62.026-.001l-11.065 30.835zm-40.311-81.44c2.387 10.87 7.311 25.413 17.432 37.546-4.176 2.855-5.881 8.162-4.18 12.903l11.122 30.991h-24.374zm39.173 14.028c1.378 8.47 4.07 15.724 6.993 21.578h-9.162c-14.31-10.788-20.214-28.266-22.612-39.938zm72.242-18.358c-2.402 11.682-8.308 29.154-22.61 39.936h-9.162c2.923-5.854 5.615-13.107 6.993-21.578zm-48.51 39.08c-4.436-6.883-9.697-18.116-9.697-32.661 0-14.532 5.17-31.776 9.697-44.09 4.527 12.313 9.697 29.558 9.697 44.09 0 14.545-5.262 25.778-9.697 32.661zm310.913.856h-9.162c2.923-5.854 5.615-13.107 6.993-21.578l24.78-18.359c-2.4 11.68-8.305 29.152-22.611 39.937zm-51.801 0c-14.306-10.785-20.211-28.265-22.612-39.937l24.781 18.359c1.378 8.47 4.07 15.724 6.993 21.578zm25.9-.856c-4.436-6.883-9.697-18.116-9.697-32.661 0-14.532 5.17-31.776 9.697-44.09 4.527 12.313 9.697 29.558 9.697 44.09.001 14.545-5.261 25.778-9.697 32.661zm49.652 15.699c1.7-4.737 0-10.046-4.18-12.903 10.076-12.078 15.001-26.547 17.4-37.399v81.294h-24.342zm28.221-142.599h20.589v173.591h-20.589zm0-102.07c0-.354.288-.643.643-.643h19.304c.354 0 .643.288.643.643v26.635h-20.589v-26.635zm-51.972-18.476h-9.161c2.923-5.854 5.615-13.107 6.992-21.578l24.779-18.358c-2.4 11.679-8.305 29.152-22.61 39.936zm-25.901-77.607c4.527 12.313 9.697 29.558 9.697 44.09 0 14.548-5.262 25.78-9.697 32.662-4.436-6.882-9.697-18.114-9.697-32.662 0-14.532 5.17-31.776 9.697-44.09zm-23.731 56.029c1.378 8.471 4.069 15.725 6.992 21.578h-9.161c-14.307-10.786-20.212-28.265-22.612-39.937zm-9.928 36.578h67.318l-10.806 30.111h-45.707zm-82.946-15h-9.161c2.923-5.854 5.615-13.107 6.992-21.578l24.779-18.358c-2.4 11.679-8.305 29.152-22.61 39.936zm-25.901-77.607c4.527 12.313 9.697 29.558 9.697 44.09 0 14.548-5.262 25.78-9.697 32.662-4.436-6.882-9.697-18.114-9.697-32.662 0-14.532 5.17-31.776 9.697-44.09zm-23.732 56.029c1.378 8.471 4.069 15.725 6.992 21.578h-9.161c-14.307-10.786-20.212-28.265-22.612-39.937zm-9.927 36.578h67.318l-10.806 30.111h-45.707zm-82.947-15h-9.161c2.923-5.854 5.615-13.107 6.992-21.578l24.778-18.357c-2.4 11.68-8.306 29.152-22.609 39.935zm-25.9-77.607c4.527 12.313 9.697 29.558 9.697 44.09 0 14.548-5.262 25.78-9.697 32.662-4.436-6.882-9.697-18.114-9.697-32.662-.001-14.532 5.169-31.776 9.697-44.09zm-23.732 56.029c1.378 8.471 4.069 15.725 6.992 21.578h-9.161c-14.31-10.788-20.213-28.266-22.612-39.938zm-9.928 36.578h67.318l-10.806 30.111h-45.706zm-64.191 2.834h19.304c.354 0 .643.288.643.643v26.635h-20.59v-26.635c0-.355.288-.643.643-.643zm19.946 351.736v25.102c0 .354-.289.643-.643.643h-19.303c-.354 0-.643-.288-.643-.643v-25.102zm-20.589-75.434v-173.59h20.589v173.591h-20.589zm481.325 101.178h-19.304c-.354 0-.643-.288-.643-.643v-25.102h20.589v25.102c.001.355-.287.643-.642.643z"/></g></svg>